<?xml version="1.0" encoding="utf-8"?>
<!DOCTYPE svg PUBLIC "-//W3C//DTD SVG 1.1//EN" "http://www.w3.org/Graphics/SVG/1.1/DTD/svg11.dtd">
<svg version="1.1" xmlns="http://www.w3.org/2000/svg" xmlns:xlink="http://www.w3.org/1999/xlink" width="32" height="32" x="0" y="0" viewBox="0 0 1000 1000" enable-background="new 0 0 1000 1000" xml:space="preserve">
	<g>
		<g transform="rotate(180, 500, 500) translate(0.000000,40.000000) scale(0.100000,-0.100000)">
			<path style="fill: #a41e22" d="M100-2422.2v-544.4h3811.1h3811.1v544.4v544.4H3911.1H100V-2422.2z"/>
			<path style="fill: #659ad2" d="M8811.1-2422.2v-544.4h544.4H9900v544.4v544.4h-544.4h-544.4V-2422.2z"/>
			<path style="fill: #a41e22" d="M100-4600v-544.4h3811.1h3811.1v544.4v544.4H3911.1H100V-4600z"/>
			<path style="fill: #659ad2" d="M8811.1-4600v-544.4h544.4H9900v544.4v544.4h-544.4h-544.4V-4600z"/>
			<path style="fill: #a41e22" d="M100-6777.8v-544.5h3811.1h3811.1v544.5v544.4H3911.1H100V-6777.8z"/>
			<path style="fill: #659ad2" d="M8811.1-6777.8v-544.5h544.4H9900v544.5v544.4h-544.4h-544.4V-6777.8z"/>
		</g>
	</g>
</svg>