<svg xmlns="http://www.w3.org/2000/svg" height="192" width="288" viewBox="-137.9478 -50 1455.5476 445.341"><path d="M1089.252 274.194h-7.3v19.1h-6.4v-19.1h-7.3v-5.5h21.1v5.5zm2.9-5.5h9.5l4.2 16.4h.1l4.2-16.4h9.5v24.6h-6v-18.7h-.1l-5.2 18.7h-4.9l-5.2-18.7h-.1v18.7h-6z"/><g fill="#a41e22"><path d="M621.752 293.094h-40.6v-129.7c13 7.2 30.1 20.5 40.6 33.3zm-342.3 0h-50.6l-66-204h46l45.4 143.5h.6l46-143.5h46.3zm203.7 0h-38.6v-20.6h-.9c-5.1 8.6-11.8 14.8-20 18.6-8.2 3.8-16.6 5.7-25.1 5.7-10.9 0-19.8-1.4-26.7-4.3-7-2.9-12.4-6.9-16.4-12.1-4-5.2-6.8-11.6-8.4-19.1-1.6-7.5-2.4-15.9-2.4-25v-90.9h40.6v83.4c0 12.2 1.9 21.3 5.7 27.3 3.8 6 10.6 9 20.3 9 11 0 19.1-3.3 24-9.9 5-6.6 7.4-17.4 7.4-32.4v-77.4h40.6v147.7zm201.5 0l-56.2-88.9-.1-5.7 51.2-53.2h48l-55.7 54.3 62 93.5zm56.6-102.3c.6-9.5 3-17.4 7.2-23.7 4.2-6.3 9.5-11.3 16-15.1 6.5-3.8 13.8-6.5 21.9-8.1 8.1-1.6 16.2-2.4 24.4-2.4 7.4 0 15 .5 22.6 1.6 7.6 1.1 14.6 3.1 20.9 6.1 6.3 3.1 11.4 7.3 15.4 12.7 4 5.4 6 12.6 6 21.6v76.9c0 6.7.4 13.1 1.1 19.1.8 6.1 2.1 10.7 4 13.7h-41.2c-.8-2.3-1.4-4.6-1.9-7-.5-2.4-.8-4.8-1-7.3-6.5 6.7-14.1 11.3-22.9 14-8.8 2.7-17.7 4-26.9 4-7 0-13.6-.9-19.7-2.6-6.1-1.7-11.4-4.4-16-8-4.6-3.6-8.2-8.2-10.7-13.7-2.6-5.5-3.9-12.1-3.9-19.7 0-8.4 1.5-15.3 4.4-20.7 3-5.4 6.8-9.8 11.4-13 4.7-3.2 10-5.7 16-7.3 6-1.6 12-2.9 18.1-3.9 6.1-.9 12.1-1.7 18-2.3 5.9-.6 11.1-1.4 15.7-2.6 4.6-1.1 8.2-2.8 10.9-5 2.7-2.2 3.9-5.4 3.7-9.6 0-4.4-.7-7.9-2.2-10.4-1.4-2.6-3.3-4.6-5.7-6-2.4-1.4-5.1-2.4-8.3-2.9-3.1-.5-6.5-.7-10.1-.7-8 0-14.3 1.7-18.9 5.1-4.6 3.4-7.2 9.1-8 17.1h-40.3zm93.8 30c-1.7 1.5-3.9 2.7-6.4 3.6-2.6.9-5.3 1.6-8.3 2.2-2.9.6-6 1-9.3 1.4-3.2.4-6.5.9-9.7 1.4-3 .6-6 1.3-9 2.3-3 1-5.5 2.2-7.7 3.9-2.2 1.6-4 3.7-5.3 6.1-1.3 2.5-2 5.6-2 9.4 0 3.6.7 6.7 2 9.1 1.3 2.5 3.1 4.4 5.4 5.9 2.3 1.4 5 2.4 8 3 3.1.6 6.2.9 9.4.9 8 0 14.2-1.3 18.6-4 4.4-2.7 7.6-5.9 9.7-9.6 2.1-3.7 3.4-7.5 3.9-11.3.5-3.8.7-6.9.7-9.1zm66.8-75.5h38.6v20.6h.9c5.1-8.6 11.8-14.8 20-18.7 8.2-3.9 16.6-5.9 25.1-5.9 10.9 0 19.8 1.5 26.7 4.4 7 3 12.4 7.1 16.4 12.3 4 5.2 6.8 11.6 8.4 19.1 1.6 7.5 2.4 15.9 2.4 25v90.9h-40.6v-83.4c0-12.2-1.9-21.3-5.7-27.3-3.8-6-10.6-9-20.3-9-11 0-19 3.3-24 9.9-5 6.6-7.4 17.4-7.4 32.4v77.4h-40.6v-147.7zm-391.8-25.5v173.2h40.6v-150.8c-13.1-8-26.6-15.5-40.6-22.4z"/><path d="M96.052 127.194c23.5-68.9 164.2-94.2 314.1-56.4 90 22.6 163.5 66.5 211.5 109.9-21.7-57.6-127.3-139.6-272.8-167.7-164.5-31.8-326.7-3.9-346.8 69.1-14.5 52.7 49.2 114.5 147.7 156.7-44.3-35.8-65.8-76-53.7-111.6zm525.8 28.4v-66.6h-40.6v20.2c17.3 15.5 31 31.2 40.6 46.4z"/></g></svg>